<svg id="Capa_1" enable-background="new 0 0 512 512" height="512" viewBox="0 0 512 512" width="512" xmlns="http://www.w3.org/2000/svg"><g><g><g><path d="m109.315 196.962h312.052v127.433h-312.052z" fill="#faf7f5"/></g><g><g><path d="m237.877 301.942c-9.444-4.742-19.153-8.947-29.027-12.708-9.902-3.772-19.971-7.099-30.145-10.055-10.018-2.911-20.139-5.463-30.326-7.711-9.849-2.173-19.76-4.06-29.711-5.698-9.258-1.524-18.552-2.831-27.869-3.94-8.395-1-16.809-1.839-25.236-2.524-7.214-.586-14.438-1.06-21.667-1.416-5.717-.282-11.438-.492-17.161-.618-3.906-.086-7.813-.134-11.719-.128-1.175.002-2.351.009-3.526.023-.579.007-1.252-.075-1.824.03-.069.013-.149.004-.22.005 8.229 2.102 16.144 5.377 23.351 9.885 6.617 4.14 12.565 9.262 17.871 14.974 5.396 5.809 10.14 12.191 14.546 18.773 4.616 6.895 8.876 14.02 13.142 21.135 4.445 7.414 8.898 14.827 13.675 22.034 5.006 7.553 10.37 14.878 16.313 21.724 6.271 7.224 13.182 13.893 20.735 19.77 8.427 6.556 17.616 12.096 27.294 16.597 11.43 5.316 23.493 9.192 35.779 11.965 15.133 3.416 30.609 5.191 46.093 5.925 17.481.829 35.085.506 52.488-1.401 14.152-1.551 28.22-4.207 41.813-8.481 11.251-3.538 22.158-8.204 32.342-14.167 8.883-5.201 17.176-11.379 24.73-18.371 6.957-6.44 13.271-13.544 19.064-21.043 5.565-7.204 10.65-14.763 15.539-22.438 4.67-7.332 9.162-14.775 13.823-22.113 4.462-7.025 9.083-13.966 14.225-20.515 4.953-6.308 10.408-12.249 16.581-17.385 6.296-5.238 13.314-9.574 20.864-12.758 3.982-1.679 8.095-3.042 12.282-4.111-1.457-.037-2.916-.048-4.373-.055-4.095-.02-8.19.025-12.284.11-6.317.132-12.632.367-18.942.689-8.125.415-16.242.976-24.347 1.681-9.52.827-19.023 1.852-28.499 3.086-10.505 1.368-20.977 2.992-31.397 4.904-11.085 2.034-22.111 4.394-33.043 7.135-11.266 2.826-22.433 6.057-33.435 9.78-11.108 3.759-22.051 8.02-32.715 12.902-5.522 2.528-10.878 5.717-16.754 7.352-6.224 1.732-12.835 1.897-19.136.465-3.184-.722-6.276-1.843-9.194-3.308z" fill="#ff7b79"/></g><path d="m370.775 143.23c-19.484-22.953-26.732-32.31-55.65-30.939-22.764 1.079-26.797 10.194-43.973 22.697-9.211 6.705-21.654 6.705-30.865 0-17.176-12.503-21.209-21.618-43.973-22.697-58.106-2.756-28.721 37.797-186.867 144.911 0 0 135.658 28.677 224.546-20.516 6.862-3.797 14.293-5.695 21.723-5.695 7.431 0 14.862 1.898 21.729 5.695 88.889 49.198 224.546 20.516 224.546 20.516-38.337-25.967-65.654-48.022-85.869-66.497" fill="#ff9c9b"/></g><g><path d="m400.715 91.615 17.629 48.024 47.642 17.771-47.642 17.77-17.629 48.025-17.629-48.025-47.641-17.77 47.641-17.771z" fill="#faf7f5"/></g></g><g><path d="m255.721 430.396c-4.187 0-8.007-2.694-9.415-6.637-1.383-3.874-.209-8.34 2.939-11.004 3.286-2.78 8.101-3.126 11.759-.865 3.512 2.17 5.327 6.418 4.528 10.457-.914 4.627-5.101 8.049-9.811 8.049z"/><path d="m511.749 254.943c-.615-2.648-2.221-4.795-4.327-6.153-32.46-21.996-59.381-42.739-82.186-63.331l.92-2.507 43.047-16.057c3.417-1.275 6.052-4.203 6.653-7.8.807-4.83-1.936-9.41-6.372-11.065l-43.328-16.162-15.94-43.422c-1.264-3.442-4.203-6.1-7.82-6.703-4.849-.808-9.442 1.96-11.08 6.422l-16.043 43.703-.77.287c-17.292-20.303-28.216-31.371-59.854-29.864-20.599.976-29.255 8.204-39.277 16.574-3.054 2.551-6.212 5.188-10.11 8.025-5.688 4.14-13.402 4.141-19.09 0-3.898-2.837-7.056-5.474-10.11-8.025-10.021-8.37-18.677-15.598-39.276-16.575-33.199-1.575-43.593 10.685-62.468 32.941-18.86 22.237-50.425 59.455-130.487 113.681-.001.001-.01.008-.028.023-6.205 5.124-4.545 15.046 2.981 17.897l.184.07c31.526 8.051 46.025 32.233 62.812 60.234 11.716 19.541 24.995 41.691 45.724 60.089 23.774 21.1 53.775 34.127 91.717 39.826.504.076 1.005.112 1.499.112 5.012 0 9.389-3.771 9.944-8.959.576-5.388-3.452-10.192-8.809-11.005-75.602-11.463-99.647-51.57-122.902-90.358-9.341-15.58-18.417-30.718-30.339-43.141 9.58.811 20.204 1.444 31.544 1.701 9.086.206 17.936.161 26.544-.132 46.556 7.47 86.481 19.452 118.681 35.62 7.097 3.563 14.715 5.344 22.334 5.344 7.618 0 15.237-1.782 22.334-5.345 31.851-15.992 72.286-28.69 113.981-35.803 6.567.296 13.278.445 20.131.445 3.661 0 7.372-.043 11.113-.127 11.173-.253 21.651-.872 31.12-1.666-12.241 12.507-21.697 27.766-31.429 43.472-23.986 38.709-48.788 78.736-122.909 90.063l-.096.014c-5.367.812-9.387 5.643-8.791 11.038.571 5.171 4.939 8.924 9.94 8.924.496 0 .998-.037 1.504-.113l.479-.073c37.092-5.668 66.686-18.613 90.473-39.572 20.722-18.26 34.375-40.294 46.421-59.736 17.488-28.223 32.598-52.608 64.249-60.791 5.29-1.367 8.748-6.698 7.512-12.02zm-125.164-105.924c2.737-1.021 4.892-3.188 5.899-5.93l8.231-22.422 8.231 22.422c1.007 2.743 3.162 4.909 5.899 5.93l22.495 8.391-22.494 8.39c-2.738 1.021-4.893 3.188-5.9 5.93l-8.231 22.422-8.231-22.422c-1.007-2.743-3.162-4.909-5.9-5.93l-22.494-8.39zm-117.516 143.976c-8.609 4.323-18.091 4.322-26.7 0-19.519-9.801-41.621-18.13-66.088-24.922 23.492-5.023 44.396-12.575 62.559-22.627 5.328-2.948 11.005-4.443 16.876-4.443 5.87 0 11.551 1.495 16.881 4.443 17.924 9.92 38.513 17.406 61.625 22.429-23.668 6.913-45.871 15.438-65.153 25.12zm13.221-65.069c-8.216-4.544-17.405-6.945-26.574-6.945-9.171 0-18.359 2.402-26.571 6.947-62.704 34.7-151.415 28.789-193.576 23.312 67.439-48.137 96.207-82.054 114.02-103.056 18.048-21.281 22.902-26.999 46.25-25.892 13.878.658 18.394 4.429 27.39 11.943 3.153 2.633 6.726 5.618 11.164 8.848 12.756 9.285 29.895 9.285 42.648 0 4.439-3.231 8.012-6.215 11.166-8.848 8.997-7.513 13.513-11.285 27.391-11.943 19.839-.94 26.325 3.048 38.901 17.325l-22.554 8.413c-3.916 1.461-6.513 5.201-6.513 9.38s2.597 7.919 6.513 9.38l43.328 16.162 16.043 43.703c1.447 3.941 5.2 6.562 9.398 6.562 4.199 0 7.951-2.62 9.398-6.562l7.706-20.992c17.064 14.975 36.246 30.041 58.055 45.592-42.142 5.492-130.801 11.419-193.583-23.329z"/></g></g></svg>